<svg xmlns="http://www.w3.org/2000/svg" version="1" viewBox="0 0 638 701"><defs/><path d="M292 6c-17 1-30 6-53 19l-22 11-18 7-15 6c-6 2-15 11-20 20-4 8-10 15-15 18-6 5-7 7-10 29l-6 16c-7 11-8 14-12 35-1 11-3 18-5 23l-4 17-2 29c-1 22-1 41 1 58 1 9 3 13 6 21l5 13 3 10 6 18c3 10 7 17 18 34 8 12 12 19 15 32l4 12v38l-1 38-2 7c-7 16-8 22-10 32-1 13-1 14-7 24l-10 18c-7 13-13 21-24 29l-10 8c-3 3-4 4-9 4-7 1-40 12-44 15l-9 5-5 4-15 1c-17 1-18 1-18 5v2l17 1h16l8-5 12-7a173 173 0 0151-14c14 0 17-1 17-4s-3-4-8-4c-4 0-4-2 0-4a93 93 0 0026-26l10-20c9-16 9-16 10-27 1-10 2-13 10-34l2-8v-85l-4-12c-4-11-12-26-16-32-5-5-14-23-17-31a417 417 0 00-14-41l-5-18c-2-16-2-34-1-50a1259 1259 0 005-48c4-8 6-16 8-31 1-14 3-18 10-30l5-12 2-15 2-8 8-9c7-6 10-9 12-15 5-9 12-17 17-18l13-6 18-7c6-2 15-6 21-10 17-10 24-13 34-16 13-4 25-5 73-5l35-1 16 4a213 213 0 0185 36 282 282 0 0027 20c1 1 3 4 6 5a133 133 0 0153 60c9 19 15 38 16 55l1 12 5 9c8 11 12 25 13 40l2 17c2 5 2 6 0 13l-2 11-1 18v15l4 7c7 10 8 14 9 39v26l-5 10c-2 3-4 8-4 11l-6 13c-3 4-6 9-6 12l-5 10c-4 4-10 16-10 18l-6 9c-7 9-10 17-12 34l-1 10-13 16c-8 7-15 15-16 18-3 6-7 10-14 14a248 248 0 00-27 13l-7 3h-66l-14-5c-25-9-29-12-59-40l-25-22c-10-6-20-15-39-34a146 146 0 01-31-39c-5-6-6-8-7-20 0-8-1-9-7-20-2-4-3-5-2-19v-20c1-8 1-12-2-12s-4 2-4 7l-2 10v29c1 6 2 9 5 13 4 6 5 10 5 19 0 7 1 10 9 22l9 13c6 8 47 48 59 56l28 25c25 24 35 31 53 37l13 5c6 2 8 2 28 3 18 0 22 1 23 2l1 7c0 5 1 7 4 14l7 10 11 3 15 3c6 2 9 2 32 2 35 0 48 1 60 5 25 7 39 10 42 7s0-5-12-8l-23-6c-16-4-22-5-61-6a239 239 0 01-59-6l-5-8-3-12 1-5 12-2c10-1 11-1 20-6l21-11 10-5 6-9 14-17c18-18 18-18 18-26l6-30 6-7 6-10 11-20 4-7c0-4 3-9 8-15l4-10 5-12c1-3 4-7 4-10 2-6 2-40 0-51s-3-15-8-22l-5-6v-12l3-22c3-13 4-15 1-23l-2-14-3-21c-4-14-4-15-10-23-5-8-7-14-7-23 0-12-7-35-17-54-13-27-20-35-54-62a557 557 0 00-62-44c-9-4-22-9-41-13l-23-6c-6-1-12-2-49-2l-53 1zm65 145a351 351 0 00-55 10c1 2 10 1 27-1 18-3 36-5 63-5h20l13 4 13 5h78l9 6c14 9 16 10 17 8 2-1 1-3-9-9-14-10-10-9-52-9-37 0-37 0-46-3l-15-5c-6-2-7-2-29-2l-34 1zm6 31l-27 8c-20 6-30 8-47 9s-21 2-21 4l19 1c21-1 25-2 58-11 22-7 41-11 49-11s21 3 30 6c13 6 19 7 31 7a487 487 0 0172 4l-4-4c-4-2-10-3-54-4l-27-1-11-4a90 90 0 00-68-4zm-10 40c-16 2-37 7-47 12-5 2-9 5-9 6 0 2 4 1 13-3l20-6 17-4a216 216 0 0154-1l-1-3-21-1h-27zm144 5c-11 6-9 10 3 4l6-3h16c19 1 21 1 30 9l9 8c4 2 8 3 8 1 0-3-18-17-24-20-5-2-7-3-23-3h-18l-7 4zm-175 55c-2 1-4 3-6 7-5 11-5 15 4 23 12 11 10 10 30 10l33-1c18-1 18-1 18-11 0-7 0-7-3-10l-19-12-16-8h-19c-16 0-19 0-22 2zm20 9l-1 13c0 12-1 13-8 8s-12-11-12-14 4-10 6-10l9-1 7 1-1 3zm196 1c-22 4-25 5-28 8-5 4-6 7-6 15s0 8 3 9l14 2 21 4 16 4c9 0 10-1 11-18 0-16 0-18-7-22-5-4-12-4-24-2zm-6 18c1 9 1 9-10 9-10-1-12-2-10-7l3-6c2-2 10-4 14-4 3 1 3 1 3 8zm-47 36c-2 2-1 16 0 21l4 8c1 4 5 9 14 18 16 18 16 17 13 23l-7 13c-4 6-5 9-5 12 0 6-2 6-8 4-7-3-12-2-12 2 0 2 1 3 6 5l9 3c6 3 12-2 13-11 0-3 2-7 5-13 6-9 9-17 9-22 0-3-1-5-4-8l-14-15c-12-12-14-17-16-30l-2-9c0-2-3-3-5-1zm-71 65l-8 1c-3 0-4 1-7 3-2 3-3 4-3 10 1 7 3 13 8 19 4 4 7 6 13 6 6 1 11 0 12-2 0-3-2-5-7-5-6 0-12-4-15-9l-3-9c0-3 0-4 2-5l5-1 9-2c5-2 7-5 3-7-2-1-3-1-9 1zm-173 63c-2 1-1 5 1 11s2 8 1 24c-1 17-1 18-4 23-3 7-4 9-1 9 2 0 4-2 6-7 4-7 5-42 3-52-2-5-5-10-6-8zm147 19c-6 3-9 8-4 10l7-1 6-2 16 4 17 5h75l4 3c3 4 4 5 6 3 3-3 0-11-6-15h-8a360 360 0 01-74 0c-16-5-29-8-33-8l-7 1zm-148 93c-15 3-25 11-34 26-8 13-14 20-20 20-9 2-7 7 3 7h6l7-7c4-4 9-11 11-16 7-12 12-16 23-20 9-4 12-6 11-9-1-1-4-2-7-1zm155 23l3 8c4 10 12 18 18 18 4 0 4-3 0-5-6-3-10-7-12-13-4-9-5-9-7-10-1 0-2 0-2 2zm-95 58l-1 2c0 2 1 2 8 2 8 0 8 0 17 4 12 6 12 6 15 12l4 6 14 1 12-1 3-3c4-7 8-12 11-13l11-2c10 0 13-1 10-4h-19c-6 1-11 6-16 13l-3 4h-7l-10 1c-4 0-4 0-6-5-3-6-4-7-8-8l-6-4c-5-4-12-6-20-6l-9 1z"/></svg>